<?xml version="1.0" standalone="no"?>
<!DOCTYPE svg PUBLIC "-//W3C//DTD SVG 20010904//EN"
 "http://www.w3.org/TR/2001/REC-SVG-20010904/DTD/svg10.dtd">
<svg version="1.0" xmlns="http://www.w3.org/2000/svg"
 width="512.000000pt" height="512.000000pt" viewBox="0 0 512.000000 512.000000"
 preserveAspectRatio="xMidYMid meet">

<g transform="translate(0.000000,512.000000) scale(0.100000,-0.100000)"
fill="#000000" stroke="none">
<path d="M4468 4893 c-126 -126 -231 -238 -234 -250 -15 -58 31 -111 83 -98
18 4 99 77 221 198 l192 192 103 -103 102 -102 -265 -265 -265 -265 -300 300
c-278 277 -303 300 -335 300 -33 0 -74 -39 -651 -617 -419 -419 -624 -632
-640 -663 -20 -37 -24 -60 -24 -135 0 -66 4 -98 17 -120 l17 -30 -974 -975
-973 -975 -271 -489 c-154 -279 -271 -500 -271 -515 0 -36 245 -281 281 -281
14 0 238 118 520 275 l494 274 1673 1673 c1553 1554 1672 1676 1672 1706 0 28
-11 46 -62 98 l-62 65 302 302 c259 259 302 307 302 332 0 25 -29 58 -183 212
-153 154 -187 183 -212 183 -25 0 -64 -35 -257 -227z m-1053 -1054 c-314 -314
-583 -577 -599 -585 -39 -21 -108 -20 -146 3 -57 33 -88 129 -59 186 6 12 270
282 587 599 l577 578 105 -105 105 -105 -570 -571z m888 248 l150 -158 -49
-50 -49 -49 -182 182 -183 183 52 52 52 53 29 -28 c16 -15 97 -98 180 -185z
m-2368 -2157 l260 -260 -478 -478 -477 -477 -262 263 -263 262 475 475 c261
261 477 475 480 475 3 0 122 -117 265 -260z"/>
</g>
</svg>
